<?xml version="1.0" standalone="no"?>
<!DOCTYPE svg PUBLIC "-//W3C//DTD SVG 20010904//EN"
 "http://www.w3.org/TR/2001/REC-SVG-20010904/DTD/svg10.dtd">
<svg version="1.0" xmlns="http://www.w3.org/2000/svg"
 width="1024.000000pt" height="1024.000000pt" viewBox="0 0 1024.000000 1024.000000"
 preserveAspectRatio="xMidYMid meet">
<metadata>
Created by potrace 1.11, written by Peter Selinger 2001-2013
</metadata>
<g transform="translate(0.000000,1024.000000) scale(0.100000,-0.100000)"
fill="#000000" stroke="none">
<path d="M5760 9678 c-27 -68 -125 -202 -214 -291 -96 -97 -150 -145 -287
-252 -46 -36 -91 -71 -99 -78 -9 -7 -60 -45 -115 -86 -332 -246 -510 -395
-680 -565 -145 -146 -164 -168 -252 -287 -93 -125 -134 -191 -192 -307 -87
-173 -147 -354 -175 -527 -8 -49 -18 -108 -22 -130 -12 -73 -11 -399 2 -506
23 -187 22 -182 50 -314 36 -174 135 -508 183 -620 5 -11 22 -54 39 -95 63
-158 74 -183 127 -296 30 -64 55 -119 55 -123 0 -3 6 -13 13 -22 10 -13 12 -1
13 65 2 181 106 459 272 731 30 50 63 105 74 124 60 106 323 449 447 585 206
225 386 393 575 538 56 43 106 82 111 86 16 13 145 95 212 135 87 53 295 150
383 180 136 46 274 69 400 69 63 -1 126 -4 140 -7 14 -3 39 -8 55 -11 17 -2
54 -12 83 -21 l53 -17 42 45 c211 225 277 457 195 678 -90 239 -296 436 -886
845 -185 128 -265 185 -292 209 -8 7 -37 31 -64 53 -74 59 -128 112 -181 179
-26 33 -49 61 -50 63 -1 1 -8 -12 -15 -30z"/>
<path d="M3180 8579 c-231 -28 -455 -108 -915 -329 -194 -93 -367 -168 -485
-210 -101 -36 -242 -66 -260 -55 -25 15 -16 -21 19 -77 66 -104 138 -318 166
-488 3 -19 8 -42 10 -50 2 -8 7 -40 10 -70 3 -30 8 -62 10 -70 2 -8 6 -37 10
-65 3 -27 8 -66 10 -85 2 -19 7 -60 10 -90 4 -30 8 -66 10 -80 2 -14 7 -47 10
-75 4 -27 9 -63 11 -80 3 -16 9 -61 14 -100 23 -171 21 -161 44 -280 23 -113
22 -113 41 -190 23 -96 21 -91 46 -175 104 -358 305 -697 548 -924 24 -22 54
-50 65 -61 43 -40 183 -143 271 -197 282 -175 626 -303 1040 -387 83 -17 168
-33 190 -36 22 -3 54 -7 70 -10 17 -3 50 -7 75 -10 25 -3 56 -7 70 -10 14 -2
57 -7 95 -10 39 -4 86 -8 105 -10 19 -2 69 -7 110 -10 l75 -7 -50 27 c-127 68
-287 238 -428 455 -46 72 -197 336 -197 346 0 2 -18 41 -39 86 -193 411 -338
885 -391 1283 -6 44 -13 91 -15 105 -17 105 -22 398 -10 525 9 99 17 160 21
166 2 4 6 24 9 45 11 71 67 238 107 319 51 103 111 187 186 259 l60 58 -13 42
c-74 244 -203 414 -367 485 -93 39 -227 55 -348 40z"/>
<path d="M6898 7505 c-2 -1 -46 -5 -98 -9 -580 -38 -1129 -349 -1640 -927
-107 -120 -123 -139 -212 -254 -81 -105 -126 -167 -232 -319 l-48 -69 54 31
c116 66 277 109 488 130 97 9 483 9 580 -1 41 -4 104 -10 140 -13 36 -3 88 -9
115 -14 51 -9 97 -16 170 -26 34 -5 142 -27 195 -39 8 -2 49 -11 90 -19 264
-57 594 -173 856 -301 375 -185 650 -426 774 -680 46 -94 55 -121 80 -221 10
-41 22 -49 82 -55 4 0 22 -5 40 -10 58 -17 247 -19 321 -4 217 47 371 206 461
475 27 82 70 273 81 360 4 30 8 57 10 60 2 3 6 43 10 90 4 47 8 87 10 90 1 3
6 46 10 95 4 50 8 106 10 125 2 19 6 73 10 120 3 47 8 103 10 125 2 22 7 68
10 102 3 34 8 72 10 85 2 13 11 64 20 115 17 103 43 191 74 252 l22 41 -77 -3
c-76 -3 -204 10 -297 32 -54 13 -275 85 -322 106 -337 146 -864 355 -1013 400
-137 41 -341 90 -422 101 -19 2 -45 6 -58 9 -37 6 -309 24 -314 20z"/>
<path d="M5590 5917 c0 -2 29 -21 64 -42 85 -49 236 -198 305 -299 8 -12 17
-23 21 -26 16 -14 190 -292 190 -305 0 -2 16 -32 36 -67 137 -239 314 -706
400 -1053 77 -310 108 -553 108 -830 0 -238 -17 -375 -70 -553 -52 -174 -124
-300 -246 -427 l-69 -73 17 -59 c17 -58 98 -242 112 -253 4 -3 22 -25 41 -50
70 -93 187 -167 309 -195 104 -24 298 -13 420 24 18 5 33 9 35 9 4 -2 201 62
222 72 11 5 61 26 110 46 102 41 133 56 475 216 325 153 500 216 615 219 22 1
43 4 47 6 4 2 -4 20 -18 41 -76 110 -156 330 -179 492 -4 24 -8 47 -10 50 -2
3 -9 44 -15 90 -6 47 -13 97 -16 111 -2 15 -6 44 -9 65 -2 22 -14 113 -25 204
-11 91 -22 176 -25 190 -2 14 -6 46 -9 72 -5 41 -11 84 -32 213 -48 306 -162
665 -277 875 -40 73 -125 209 -151 241 -12 14 -32 40 -46 59 -147 195 -396
395 -665 536 -312 163 -778 301 -1185 349 -30 4 -57 8 -60 10 -3 2 -39 6 -80
10 -41 3 -86 8 -100 10 -14 2 -65 7 -115 10 -49 4 -98 9 -107 11 -10 3 -18 3
-18 1z"/>
<path d="M1625 5559 c-368 -51 -561 -402 -620 -1124 -3 -44 -8 -96 -10 -115
-2 -19 -6 -69 -9 -110 -10 -123 -17 -202 -22 -250 -3 -25 -7 -67 -9 -95 -3
-27 -9 -72 -15 -100 -5 -27 -11 -66 -14 -85 -8 -54 -41 -161 -65 -209 -11 -25
-21 -47 -21 -50 0 -3 57 -6 128 -7 210 -2 401 -59 877 -264 266 -115 457 -189
653 -256 75 -26 316 -89 374 -99 18 -3 58 -10 88 -15 192 -33 495 -33 671 0
134 25 287 71 409 122 102 43 275 131 301 154 8 8 18 14 22 14 3 0 36 21 74
46 300 205 552 450 856 834 81 102 267 364 267 376 0 4 -8 0 -17 -8 -56 -49
-247 -115 -388 -134 -27 -3 -59 -8 -70 -10 -110 -21 -581 -21 -705 1 -14 2
-56 6 -95 9 -38 3 -81 8 -95 11 -27 6 -122 21 -185 30 -224 33 -702 165 -870
240 -16 7 -54 23 -84 35 -47 18 -206 96 -311 152 -197 105 -462 330 -556 472
-85 129 -142 257 -159 358 -5 33 -10 39 -43 47 -115 30 -267 43 -357 30z"/>
<path d="M6032 5045 c-1 -246 -168 -621 -460 -1035 -53 -74 -98 -137 -101
-140 -3 -3 -44 -52 -91 -110 -82 -102 -105 -128 -240 -273 -329 -354 -729
-649 -1070 -792 -264 -111 -554 -142 -759 -82 l-84 25 -22 -22 c-41 -41 -122
-141 -152 -191 -64 -102 -95 -201 -96 -304 -1 -95 6 -136 40 -220 86 -216 289
-417 738 -731 105 -73 223 -156 263 -184 216 -151 351 -267 417 -360 22 -31
42 -56 45 -56 3 0 18 26 33 57 58 121 199 280 389 436 57 46 209 164 338 262
129 98 237 181 240 184 3 3 23 19 45 36 22 16 78 61 125 101 212 180 326 295
452 455 66 82 188 260 188 273 0 2 15 30 33 63 97 174 175 424 207 671 18 136
15 470 -5 566 -2 12 -6 44 -9 71 -3 28 -8 61 -11 75 -3 14 -12 61 -21 105 -45
227 -159 588 -264 830 -23 53 -140 306 -153 331 -14 28 -15 26 -15 -41z"/>
</g>
</svg>
